<?xml version="1.0" encoding="UTF-8" standalone="no"?>
<!-- Created with Inkscape (http://www.inkscape.org/) -->

<svg
   xmlns:dc="http://purl.org/dc/elements/1.1/"
   xmlns:cc="http://creativecommons.org/ns#"
   xmlns:rdf="http://www.w3.org/1999/02/22-rdf-syntax-ns#"
   xmlns:svg="http://www.w3.org/2000/svg"
   xmlns="http://www.w3.org/2000/svg"
   xmlns:sodipodi="http://sodipodi.sourceforge.net/DTD/sodipodi-0.dtd"
   xmlns:inkscape="http://www.inkscape.org/namespaces/inkscape"
   width="1000"
   height="951.72113"
   viewBox="0 0 264.58333 251.80955"
   version="1.1"
   id="svg8"
   inkscape:version="0.92.4 (5da689c313, 2019-01-14)"
   sodipodi:docname="A.svg">
  <defs
     id="defs2">
    <clipPath
       clipPathUnits="userSpaceOnUse"
       id="clipPath357">
      <path
         d="M 918.864,36 H 1008 v 46.734 h -89.136 z"
         id="path355"
         inkscape:connector-curvature="0" />
    </clipPath>
    <clipPath
       clipPathUnits="userSpaceOnUse"
       id="clipPath251">
      <path
         d="M 918.864,36 H 1008 v 46.734 h -89.136 z"
         id="path249"
         inkscape:connector-curvature="0" />
    </clipPath>
    <clipPath
       clipPathUnits="userSpaceOnUse"
       id="clipPath239">
      <path
         d="M 918.869,36 H 1008 v 46.734 h -89.131 z"
         id="path237"
         inkscape:connector-curvature="0" />
    </clipPath>
    <clipPath
       clipPathUnits="userSpaceOnUse"
       id="clipPath175">
      <path
         d="M 918.864,36 H 1008 v 46.734 h -89.136 z"
         id="path173"
         inkscape:connector-curvature="0" />
    </clipPath>
    <clipPath
       clipPathUnits="userSpaceOnUse"
       id="clipPath163">
      <path
         d="M 918.869,36 H 1008 v 46.734 h -89.131 z"
         id="path161"
         inkscape:connector-curvature="0" />
    </clipPath>
    <clipPath
       clipPathUnits="userSpaceOnUse"
       id="clipPath2513">
      <path
         d="M 0,0 H 1190.551 V 841.89 H 0 Z"
         id="path2511"
         inkscape:connector-curvature="0" />
    </clipPath>
    <clipPath
       clipPathUnits="userSpaceOnUse"
       id="clipPath2631">
      <path
         d="m -249.53259,-95.6886 v 55.00359 h 125.93387 V -95.6886 Z"
         id="path2629"
         inkscape:connector-curvature="0" />
    </clipPath>
    <clipPath
       clipPathUnits="userSpaceOnUse"
       id="clipPath2639">
      <path
         d="m 0,172.25201 h 473 v -172 H 0 v 172"
         id="path2637"
         inkscape:connector-curvature="0" />
    </clipPath>
    <clipPath
       clipPathUnits="userSpaceOnUse"
       id="clipPath2679">
      <path
         d="m 0,172.25201 h 473 v -172 H 0 v 172"
         id="path2677"
         inkscape:connector-curvature="0" />
    </clipPath>
    <clipPath
       clipPathUnits="userSpaceOnUse"
       id="clipPath2695">
      <path
         d="m 0,172.25201 h 473 v -172 H 0 v 172"
         id="path2693"
         inkscape:connector-curvature="0" />
    </clipPath>
    <clipPath
       clipPathUnits="userSpaceOnUse"
       id="clipPath596">
      <path
         d="m 233.56,75.529 h 144 v 42.141 h -144 z"
         id="path594"
         inkscape:connector-curvature="0" />
    </clipPath>
    <clipPath
       clipPathUnits="userSpaceOnUse"
       id="clipPath558">
      <path
         d="m 233.56,75.529 h 144 v 42.141 h -144 z"
         id="path556"
         inkscape:connector-curvature="0" />
    </clipPath>
    <clipPath
       clipPathUnits="userSpaceOnUse"
       id="clipPath4814">
      <path
         d="M 0,792 H 612 V 0 H 0 Z"
         id="path4812"
         inkscape:connector-curvature="0" />
    </clipPath>
    <clipPath
       clipPathUnits="userSpaceOnUse"
       id="clipPath4826">
      <path
         d="M 43.501,694.5 H 97.5 v 54 H 43.501 Z"
         id="path4824"
         inkscape:connector-curvature="0" />
    </clipPath>
    <clipPath
       clipPathUnits="userSpaceOnUse"
       id="clipPath6559">
      <path
         d="M 0,0 H 792 V 612 H 0 Z"
         id="path6557"
         inkscape:connector-curvature="0" />
    </clipPath>
    <clipPath
       clipPathUnits="userSpaceOnUse"
       id="clipPath6521">
      <path
         d="M 0,0 H 792 V 612 H 0 Z"
         id="path6519"
         inkscape:connector-curvature="0" />
    </clipPath>
    <clipPath
       clipPathUnits="userSpaceOnUse"
       id="clipPath6411">
      <path
         d="M 0,0 H 792 V 612 H 0 Z"
         id="path6409"
         inkscape:connector-curvature="0" />
    </clipPath>
    <clipPath
       clipPathUnits="userSpaceOnUse"
       id="clipPath6387">
      <path
         d="M 0,0 H 792 V 612 H 0 Z"
         id="path6385"
         inkscape:connector-curvature="0" />
    </clipPath>
  </defs>
  <sodipodi:namedview
     id="base"
     pagecolor="#ffffff"
     bordercolor="#666666"
     borderopacity="1.0"
     inkscape:pageopacity="0.82352941"
     inkscape:pageshadow="2"
     inkscape:zoom="0.35"
     inkscape:cx="875.46534"
     inkscape:cy="-319.44406"
     inkscape:document-units="px"
     inkscape:current-layer="layer1"
     showgrid="false"
     units="px"
     inkscape:window-width="1920"
     inkscape:window-height="1017"
     inkscape:window-x="1912"
     inkscape:window-y="-8"
     inkscape:window-maximized="1"
     inkscape:pagecheckerboard="true"
     fit-margin-top="0"
     fit-margin-left="0"
     fit-margin-right="0"
     fit-margin-bottom="0" />
  <metadata
     id="metadata5">
    <rdf:RDF>
      <cc:Work
         rdf:about="">
        <dc:format>image/svg+xml</dc:format>
        <dc:type
           rdf:resource="http://purl.org/dc/dcmitype/StillImage" />
        <dc:title></dc:title>
      </cc:Work>
    </rdf:RDF>
  </metadata>
  <g
     inkscape:label="Layer 1"
     inkscape:groupmode="layer"
     id="layer1"
     transform="translate(-319.1733,303.56216)">
    <g
       id="g6377"
       transform="matrix(1.3198382,0,0,-1.3198382,319.1733,-66.823842)">
      <path
         d="M 0,0 3.292,0.65 3.698,4.754 V 19.342 L 3.292,23.446 0,24.097 v 1.219 h 8.777 l 2.074,-5.974 6.136,-15.97 6.297,16.011 1.911,5.933 h 8.777 V 24.097 L 30.72,23.446 30.274,19.342 V 4.754 L 30.72,0.65 33.972,0 V -1.26 H 22.757 V 0 l 3.25,0.65 0.448,4.104 V 22.552 L 19.465,4.754 17.393,-1.26 H 14.752 L 12.557,4.754 5.527,22.552 V 4.754 L 5.973,0.65 9.225,0 V -1.26 H 0 Z"
         style="fill:#070809;fill-opacity:1;fill-rule:nonzero;stroke:none"
         id="path6379"
         inkscape:connector-curvature="0" />
    </g>
    <g
       transform="matrix(1.3198382,0,0,-1.3198382,-71.190647,257.08898)"
       id="g6381">
      <g
         id="g6383"
         clip-path="url(#clipPath6387)">
        <g
           id="g6389"
           transform="translate(332.8561,245.4186)">
          <path
             d="M 0,0 2.844,0.528 3.25,3.617 v 8.37 l -0.406,3.129 -3.252,0.528 v 1.26 L 7.151,17.635 6.745,11.987 V 3.617 L 7.151,0.528 9.995,0 V -1.26 H 0 Z m 2.112,24.95 c 0,1.382 1.138,2.56 2.561,2.56 1.381,0 2.56,-1.138 2.56,-2.6 0,-1.301 -1.057,-2.52 -2.56,-2.52 -1.383,0 -2.561,1.016 -2.561,2.56"
             style="fill:#070809;fill-opacity:1;fill-rule:nonzero;stroke:none"
             id="path6391"
             inkscape:connector-curvature="0" />
        </g>
        <g
           id="g6393"
           transform="translate(344.4544,252.3667)">
          <path
             d="m 0,0 c 0,6.34 3.983,10.81 9.753,10.81 1.138,0 2.032,-0.123 3.13,-0.366 v 4.754 l -0.448,3.129 -3.25,0.528 v 1.26 l 7.599,0.731 -0.448,-5.648 V -3.331 l 0.448,-3.089 2.641,-0.528 v -1.26 l -6.542,-0.853 0.609,3.86 C 11.622,-7.721 9.713,-9.061 7.03,-9.061 2.926,-9.061 0,-5.526 0,0 M 12.883,-3.738 V 8.29 C 11.745,8.778 10.851,9.021 9.591,9.021 5.77,9.021 3.658,5.852 3.658,0.854 c 0,-4.43 1.626,-7.112 4.795,-7.112 1.423,0 2.926,0.651 4.43,2.52"
             style="fill:#070809;fill-opacity:1;fill-rule:nonzero;stroke:none"
             id="path6395"
             inkscape:connector-curvature="0" />
        </g>
        <g
           id="g6397"
           transform="translate(365.3453,252.3667)">
          <path
             d="m 0,0 c 0,6.34 3.983,10.81 9.753,10.81 1.138,0 2.032,-0.123 3.13,-0.366 v 4.754 l -0.448,3.129 -3.25,0.528 v 1.26 l 7.599,0.731 -0.448,-5.648 V -3.331 l 0.448,-3.089 2.641,-0.528 v -1.26 l -6.542,-0.853 0.609,3.86 C 11.622,-7.721 9.713,-9.061 7.03,-9.061 2.926,-9.061 0,-5.526 0,0 M 12.883,-3.738 V 8.29 C 11.745,8.778 10.851,9.021 9.591,9.021 5.77,9.021 3.658,5.852 3.658,0.854 c 0,-4.43 1.625,-7.112 4.795,-7.112 1.423,0 2.926,0.651 4.43,2.52"
             style="fill:#070809;fill-opacity:1;fill-rule:nonzero;stroke:none"
             id="path6399"
             inkscape:connector-curvature="0" />
        </g>
      </g>
    </g>
    <g
       id="g6401"
       transform="matrix(1.3198382,0,0,-1.3198382,440.02905,-66.823842)">
      <path
         d="m 0,0 2.844,0.528 0.448,3.089 v 18.529 l -0.448,3.129 -3.25,0.528 v 1.26 L 7.153,27.795 6.745,22.146 V 3.617 L 7.193,0.528 9.997,0 V -1.26 H 0 Z"
         style="fill:#070809;fill-opacity:1;fill-rule:nonzero;stroke:none"
         id="path6403"
         inkscape:connector-curvature="0" />
    </g>
    <g
       transform="matrix(1.3198382,0,0,-1.3198382,-71.190647,257.08898)"
       id="g6405">
      <g
         id="g6407"
         clip-path="url(#clipPath6411)">
        <g
           id="g6413"
           transform="translate(398.7884,253.0579)">
          <path
             d="m 0,0 c 0,6.176 3.129,10.118 8.208,10.118 4.267,0 7.233,-2.763 7.071,-8.533 H 3.535 c 0,0 -0.04,-0.569 -0.04,-0.895 0,-4.591 2.235,-7.842 6.542,-7.842 1.3,0 2.763,0.325 4.185,1.382 l 0.813,-1.097 C 12.718,-8.981 10.971,-9.753 8.045,-9.753 3.21,-9.753 0,-6.258 0,0 m 8.859,3.21 2.762,0.407 c 0,3.209 -1.504,4.876 -3.738,4.876 -2.276,0 -3.86,-1.707 -4.307,-5.283 z"
             style="fill:#070809;fill-opacity:1;fill-rule:nonzero;stroke:none"
             id="path6415"
             inkscape:connector-curvature="0" />
        </g>
        <g
           id="g6417"
           transform="translate(418.0244,244.1586)">
          <path
             d="m 0,0 v 23.406 l -0.406,3.129 -3.25,0.528 v 1.26 l 7.557,0.732 -0.406,-5.649 v -7.639 c 1.503,1.991 3.698,3.251 6.178,3.251 3.901,0 6.622,-3.333 6.622,-8.494 0,-6.298 -3.778,-11.377 -11.094,-11.377 -1.706,0 -2.884,0 -5.201,0.853 m 12.72,9.224 c 0,4.185 -1.789,7.03 -4.51,7.03 -1.666,0 -3.252,-0.69 -4.715,-2.397 V 4.877 L 3.901,1.341 C 4.878,1.016 5.567,0.853 6.624,0.853 c 4.186,0 6.096,3.738 6.096,8.371"
             style="fill:#070809;fill-opacity:1;fill-rule:nonzero;stroke:none"
             id="path6419"
             inkscape:connector-curvature="0" />
        </g>
        <g
           id="g6421"
           transform="translate(439.0346,249.6443)">
          <path
             d="m 0,0 v 7.762 l -0.448,3.128 -3.17,0.529 v 1.26 L 3.901,13.409 3.493,7.762 V 0.935 c 0,-2.804 1.301,-4.511 3.861,-4.511 1.748,0 3.332,1.057 4.47,2.438 v 8.9 l -0.406,3.128 -3.17,0.529 v 1.26 l 7.517,0.73 -0.446,-5.647 v -8.371 l 0.446,-3.089 2.926,-0.528 v -1.26 l -6.867,-0.731 0.448,3.657 C 10.361,-5.201 8.654,-6.339 5.77,-6.339 2.193,-6.339 0,-4.064 0,0"
             style="fill:#070809;fill-opacity:1;fill-rule:nonzero;stroke:none"
             id="path6423"
             inkscape:connector-curvature="0" />
        </g>
      </g>
    </g>
    <g
       id="g6425"
       transform="matrix(1.3198382,0,0,-1.3198382,559.51516,-52.449494)">
      <path
         d="m 0,0 v 1.382 l 4.064,0.65 1.746,2.845 1.749,4.104 -5.69,13.897 -1.666,3.17 -1.829,0.487 v 1.26 h 8.899 v -1.26 l -2.6,-0.487 0.976,-3.17 3.656,-9.386 3.415,9.386 0.892,3.17 -2.558,0.487 v 1.26 h 7.313 v -1.26 L 16.295,26.048 14.752,22.878 5.893,-0.528 Z"
         style="fill:#070809;fill-opacity:1;fill-rule:nonzero;stroke:none"
         id="path6427"
         inkscape:connector-curvature="0" />
    </g>
    <g
       id="g6437"
       transform="matrix(1.3198382,0,0,-1.3198382,552.35784,-89.541193)">
      <path
         d="m 0,0 c -2.306,0 -4.127,-1.291 -5.828,-4.153 -0.005,0.044 -0.013,0.088 -0.015,0.131 l 0.006,0.475 c 0.014,0.206 0.037,0.413 0.06,0.619 0.052,0.452 0.103,0.903 0.154,1.355 0.075,0.66 0.15,1.319 0.225,1.979 l -7.144,-0.729 v -1.259 l 3.248,-0.528 0.446,-3.124 v -8.361 l -0.446,-3.085 -2.841,-0.528 v -1.258 h 10.429 v 1.258 l -3.246,0.528 -0.446,3.085 v 0.971 2.639 2.929 0.805 0.332 c 0,0.052 0.004,0.108 0.008,0.164 1.176,1.455 2.753,1.98 3.969,1.98 0.853,0 1.704,-0.284 2.395,-0.608 l 1.015,4.099 C 1.136,-0.04 0.731,0 0,0"
         style="fill:#070809;fill-opacity:1;fill-rule:nonzero;stroke:none"
         id="path6439"
         inkscape:connector-curvature="0" />
    </g>
    <g
       id="g6441"
       transform="matrix(1.3198382,0,0,-1.3198382,451.50792,-132.50321)"
       style="fill:#04327c;fill-opacity:1">
      <path
         d="m 0,0 -0.633,0.304 c -29.912,14.347 -44.12,32.519 -50.772,45.237 -7.259,13.881 -7.37,24.256 -7.37,24.691 v 59.374 H 58.711 v -59.37 c 0,-0.434 -0.082,-10.809 -7.32,-24.689 C 44.76,32.83 30.57,14.658 0.633,0.304 Z M -55.847,126.678 V 70.236 c 0,-0.095 0.136,-10.225 7.125,-23.506 C -42.31,34.546 -28.659,17.153 0,3.249 28.682,17.158 42.315,34.55 48.707,46.732 c 6.967,13.279 7.076,23.406 7.076,23.506 v 56.44 z"
         style="fill:#04327c;fill-opacity:1;fill-rule:nonzero;stroke:none"
         id="path6443"
         inkscape:connector-curvature="0" />
    </g>
    <g
       id="g6445"
       transform="matrix(1.3198382,0,0,-1.3198382,423.56853,-274.43945)"
       style="fill:#04327c;fill-opacity:1">
      <path
         d="M 0,0 C -1.322,1.771 -3.08,3.195 -5.124,4.1 -4.341,2.969 -3.682,1.58 -3.174,0 Z"
         style="fill:#04327c;fill-opacity:1;fill-rule:nonzero;stroke:none"
         id="path6447"
         inkscape:connector-curvature="0" />
    </g>
    <g
       id="g6449"
       transform="matrix(1.3198382,0,0,-1.3198382,411.38552,-280.94754)"
       style="fill:#04327c;fill-opacity:1">
      <path
         d="M 0,0 V -4.931 H 3.754 C 2.806,-2.351 1.43,-0.602 0,0"
         style="fill:#04327c;fill-opacity:1;fill-rule:nonzero;stroke:none"
         id="path6451"
         inkscape:connector-curvature="0" />
    </g>
    <g
       id="g6453"
       transform="matrix(1.3198382,0,0,-1.3198382,401.92519,-265.73773)"
       style="fill:#04327c;fill-opacity:1">
      <path
         d="M 0,0 H 4.972 V 4.397 H 0.57 C 0.264,3.071 0.064,1.597 0,0"
         style="fill:#04327c;fill-opacity:1;fill-rule:nonzero;stroke:none"
         id="path6455"
         inkscape:connector-curvature="0" />
    </g>
    <g
       id="g6457"
       transform="matrix(1.3198382,0,0,-1.3198382,403.53274,-274.43945)"
       style="fill:#04327c;fill-opacity:1">
      <path
         d="M 0,0 H 3.754 V 4.932 C 2.324,4.331 0.947,2.581 0,0"
         style="fill:#04327c;fill-opacity:1;fill-rule:nonzero;stroke:none"
         id="path6459"
         inkscape:connector-curvature="0" />
    </g>
    <g
       id="g6461"
       transform="matrix(1.3198382,0,0,-1.3198382,402.67801,-257.03407)"
       style="fill:#04327c;fill-opacity:1">
      <path
         d="M 0,0 H 4.401 V 4.399 H -0.57 C -0.507,2.801 -0.307,1.327 0,0"
         style="fill:#04327c;fill-opacity:1;fill-rule:nonzero;stroke:none"
         id="path6463"
         inkscape:connector-curvature="0" />
    </g>
    <g
       id="g6465"
       transform="matrix(1.3198382,0,0,-1.3198382,408.48701,-247.62772)"
       style="fill:#04327c;fill-opacity:1">
      <path
         d="M 0,0 V 4.931 H -3.753 C -2.806,2.35 -1.43,0.601 0,0"
         style="fill:#04327c;fill-opacity:1;fill-rule:nonzero;stroke:none"
         id="path6467"
         inkscape:connector-curvature="0" />
    </g>
    <g
       id="g6469"
       transform="matrix(1.3198382,0,0,-1.3198382,399.02866,-262.83937)"
       style="fill:#04327c;fill-opacity:1">
      <path
         d="m 0,0 h -4.577 c 0.133,-1.563 0.55,-3.042 1.192,-4.399 H 0.53 C 0.24,-3.024 0.059,-1.549 0,0"
         style="fill:#04327c;fill-opacity:1;fill-rule:nonzero;stroke:none"
         id="path6471"
         inkscape:connector-curvature="0" />
    </g>
    <g
       id="g6473"
       transform="matrix(1.3198382,0,0,-1.3198382,417.19452,-271.54108)"
       style="fill:#04327c;fill-opacity:1">
      <path
         d="M 0,0 H -4.401 V -4.397 H 0.571 C 0.507,-2.8 0.307,-1.326 0,0"
         style="fill:#04327c;fill-opacity:1;fill-rule:nonzero;stroke:none"
         id="path6475"
         inkscape:connector-curvature="0" />
    </g>
    <g
       id="g6477"
       transform="matrix(1.3198382,0,0,-1.3198382,399.72685,-271.54108)"
       style="fill:#04327c;fill-opacity:1">
      <path
         d="m 0,0 h -3.915 c -0.642,-1.355 -1.058,-2.834 -1.191,-4.397 h 4.577 C -0.47,-2.849 -0.289,-1.374 0,0"
         style="fill:#04327c;fill-opacity:1;fill-rule:nonzero;stroke:none"
         id="path6479"
         inkscape:connector-curvature="0" />
    </g>
    <g
       id="g6481"
       transform="matrix(1.3198382,0,0,-1.3198382,396.30583,-254.13571)"
       style="fill:#04327c;fill-opacity:1">
      <path
         d="M 0,0 C 1.322,-1.77 3.079,-3.192 5.121,-4.098 4.339,-2.967 3.681,-1.578 3.172,0 Z"
         style="fill:#04327c;fill-opacity:1;fill-rule:nonzero;stroke:none"
         id="path6483"
         inkscape:connector-curvature="0" />
    </g>
    <g
       id="g6485"
       transform="matrix(1.3198382,0,0,-1.3198382,420.84481,-265.73773)"
       style="fill:#04327c;fill-opacity:1">
      <path
         d="M 0,0 H 4.576 C 4.444,1.563 4.028,3.042 3.386,4.397 H -0.53 C -0.241,3.023 -0.059,1.548 0,0"
         style="fill:#04327c;fill-opacity:1;fill-rule:nonzero;stroke:none"
         id="path6487"
         inkscape:connector-curvature="0" />
    </g>
    <g
       id="g6489"
       transform="matrix(1.3198382,0,0,-1.3198382,403.06392,-279.84933)"
       style="fill:#04327c;fill-opacity:1">
      <path
         d="m 0,0 c -2.042,-0.906 -3.799,-2.328 -5.121,-4.099 h 3.173 C -1.44,-2.52 -0.781,-1.132 0,0"
         style="fill:#04327c;fill-opacity:1;fill-rule:nonzero;stroke:none"
         id="path6491"
         inkscape:connector-curvature="0" />
    </g>
    <g
       id="g6493"
       transform="matrix(1.3198382,0,0,-1.3198382,420.14474,-257.03407)"
       style="fill:#04327c;fill-opacity:1">
      <path
         d="M 0,0 H 3.916 C 4.558,1.356 4.975,2.835 5.107,4.399 H 0.53 C 0.471,2.849 0.29,1.375 0,0"
         style="fill:#04327c;fill-opacity:1;fill-rule:nonzero;stroke:none"
         id="path6495"
         inkscape:connector-curvature="0" />
    </g>
    <g
       id="g6497"
       transform="matrix(1.3198382,0,0,-1.3198382,453.15613,-294.97414)"
       style="fill:#04327c;fill-opacity:1">
      <path
         d="M 0,0 V -1.463 C 1.116,-1.941 1.904,-3.007 1.904,-4.26 1.904,-5.513 1.116,-6.577 0,-7.055 v -1.778 c 1.678,-0.613 4.706,-2.081 6.09,-5.063 1.297,-2.793 1.534,-5.211 1.546,-6.536 h 1.193 v -2.562 h -20.22 v 2.562 h 1.193 c 0.013,1.325 0.25,3.743 1.546,6.536 1.382,2.976 4.41,4.45 6.09,5.066 v 1.776 c -1.116,0.478 -1.904,1.541 -1.904,2.794 0,1.253 0.788,2.317 1.904,2.796 V 0 h -50.27 v -51.299 c 0,0 0.008,-2.308 0.771,-6.148 0.088,0.03 0.177,0.059 0.265,0.089 5.496,1.877 15.415,5.094 21.983,5.094 6.568,0 8.98,-1.742 15.28,-1.742 0.726,0 1.428,-0.016 2.115,-0.041 v 11.519 H 9.856 v -11.896 c 4.461,0.134 7.785,0.004 11.802,-0.722 5.563,-1.005 8.982,-4.624 12.935,-5.228 3.954,-0.603 7.438,0.268 11.662,0.067 1.088,-0.052 1.88,-0.088 2.583,-0.122 1.43,5.6 1.433,9.13 1.433,9.13 V 0 Z m -32.746,-38.343 c -8.323,0 -15.094,6.771 -15.094,15.093 0,8.323 6.771,15.094 15.094,15.094 8.323,0 15.093,-6.771 15.093,-15.094 0,-8.322 -6.77,-15.093 -15.093,-15.093 m 44.207,-2.004 h -25.483 v 2.562 h 3.859 V -25.19 H 7.599 v -12.595 h 3.862 z m 19.157,22.69 c 2.659,4.843 8.578,4.937 8.578,4.937 0.088,0.096 0,-14.718 0,-14.718 0,0 -5.919,-0.094 -8.578,-4.938 z m -10.67,5.064 c 0,0 5.858,-0.095 8.488,-4.938 v -14.718 c -2.63,4.843 -8.488,4.938 -8.488,4.938 0,0 -0.084,14.813 0,14.718 m 23.748,-17.328 -14.074,-8.255 -14.084,8.255 v 15.935 h 2.196 v -14.677 l 11.888,-6.967 11.878,6.967 v 14.677 h 2.196 z"
         style="fill:#04327c;fill-opacity:1;fill-rule:nonzero;stroke:none"
         id="path6499"
         inkscape:connector-curvature="0" />
    </g>
    <g
       id="g6501"
       transform="matrix(1.3198382,0,0,-1.3198382,417.94828,-262.83937)"
       style="fill:#04327c;fill-opacity:1">
      <path
         d="m 0,0 h -4.972 v -4.399 h 4.401 C -0.264,-3.072 -0.064,-1.598 0,0"
         style="fill:#04327c;fill-opacity:1;fill-rule:nonzero;stroke:none"
         id="path6503"
         inkscape:connector-curvature="0" />
    </g>
    <g
       id="g6505"
       transform="matrix(1.3198382,0,0,-1.3198382,411.38552,-247.62851)"
       style="fill:#04327c;fill-opacity:1">
      <path
         d="M 0,0 C 1.43,0.603 2.806,2.351 3.753,4.93 H 0 Z"
         style="fill:#04327c;fill-opacity:1;fill-rule:nonzero;stroke:none"
         id="path6507"
         inkscape:connector-curvature="0" />
    </g>
    <g
       id="g6509"
       transform="matrix(1.3198382,0,0,-1.3198382,416.80569,-248.72582)"
       style="fill:#04327c;fill-opacity:1">
      <path
         d="M 0,0 C 2.043,0.905 3.802,2.328 5.123,4.099 H 1.95 C 1.441,2.52 0.783,1.131 0,0"
         style="fill:#04327c;fill-opacity:1;fill-rule:nonzero;stroke:none"
         id="path6511"
         inkscape:connector-curvature="0" />
    </g>
    <path
       d="m 454.59862,-225.00303 h -6.2666 v -10.84383 h 6.2666 z"
       style="fill:#04327c;fill-opacity:1;fill-rule:nonzero;stroke:none;stroke-width:1.31983817"
       id="path6513"
       inkscape:connector-curvature="0" />
    <g
       transform="matrix(1.3198382,0,0,-1.3198382,-71.190647,257.08898)"
       id="g6515"
       style="fill:#04327c;fill-opacity:1">
      <g
         id="g6517"
         clip-path="url(#clipPath6521)"
         style="fill:#04327c;fill-opacity:1">
        <g
           id="g6523"
           transform="translate(392.794,326.4834)"
           style="fill:#04327c;fill-opacity:1">
          <path
             d="m 0,0 c -0.362,0.289 -0.926,0.579 -1.867,0.97 -0.709,-0.377 -1.216,-0.956 -1.216,-1.795 0,-1.013 0.724,-1.665 1.853,-1.665 1.013,0 1.708,0.594 1.708,1.448 C 0.478,-0.594 0.32,-0.246 0,0"
             style="fill:#04327c;fill-opacity:1;fill-rule:nonzero;stroke:none"
             id="path6525"
             inkscape:connector-curvature="0" />
        </g>
        <g
           id="g6527"
           transform="translate(391.578,328.7995)"
           style="fill:#04327c;fill-opacity:1">
          <path
             d="m 0,0 c 0.637,0.319 1.39,0.825 1.39,1.621 0,0.767 -0.564,1.231 -1.534,1.231 -0.927,0 -1.535,-0.507 -1.535,-1.259 C -1.679,0.752 -0.68,0.275 0,0"
             style="fill:#04327c;fill-opacity:1;fill-rule:nonzero;stroke:none"
             id="path6529"
             inkscape:connector-curvature="0" />
        </g>
        <g
           id="g6531"
           transform="translate(399.6136,331.6082)"
           style="fill:#04327c;fill-opacity:1">
          <path
             d="m 0,0 c -0.565,0 -0.999,-0.45 -1.274,-1.216 -0.231,-0.623 -0.333,-1.448 -0.333,-2.476 0,-0.969 0.072,-1.723 0.202,-2.258 0.261,-1.129 0.782,-1.607 1.39,-1.607 0.608,0 1.099,0.521 1.361,1.361 0.188,0.622 0.275,1.447 0.275,2.417 0,0.942 -0.073,1.592 -0.217,2.216 C 1.129,-0.435 0.636,0 0,0"
             style="fill:#04327c;fill-opacity:1;fill-rule:nonzero;stroke:none"
             id="path6533"
             inkscape:connector-curvature="0" />
        </g>
        <g
           id="g6535"
           transform="translate(410.8242,344.6505)"
           style="fill:#04327c;fill-opacity:1">
          <path
             d="m 0,0 v -0.051 h -29.596 l -21.448,-13.436 c 7.64,-9.344 19.081,-19.088 36.229,-27.3 17.189,8.228 28.638,17.99 36.269,27.347 z m -24.24,-21.569 h -4.589 v 1.288 h 1.679 v 6.428 c -0.144,-0.088 -0.593,-0.377 -0.984,-0.565 -0.39,-0.188 -0.926,-0.419 -1.101,-0.477 l -0.389,0.853 2.909,2.042 h 1.129 v -8.281 h 1.346 z m 4.821,-0.275 c -1.665,0 -3.416,0.825 -3.416,2.736 0,1.172 0.781,2.113 1.852,2.49 -0.882,0.361 -1.549,1.245 -1.549,2.215 0,1.838 1.709,2.562 3.286,2.562 1.824,0 3.084,-0.97 3.084,-2.389 0,-1.186 -0.927,-1.853 -1.926,-2.229 1.405,-0.579 2.287,-1.273 2.287,-2.475 0,-1.868 -1.954,-2.91 -3.618,-2.91 m 8.179,0.058 c -2.548,0 -3.358,2.968 -3.358,5.038 0,2.851 1.447,4.907 3.372,4.907 2.592,0 3.402,-2.852 3.402,-4.951 0,-2.996 -1.389,-4.994 -3.416,-4.994 m 8.105,0 c -2.547,0 -3.358,2.968 -3.358,5.038 0,2.851 1.448,4.907 3.374,4.907 2.591,0 3.401,-2.852 3.401,-4.951 0,-2.996 -1.389,-4.994 -3.417,-4.994"
             style="fill:#04327c;fill-opacity:1;fill-rule:nonzero;stroke:none"
             id="path6537"
             inkscape:connector-curvature="0" />
        </g>
        <g
           id="g6539"
           transform="translate(407.7189,331.6082)"
           style="fill:#04327c;fill-opacity:1">
          <path
             d="m 0,0 c -0.565,0 -0.999,-0.45 -1.274,-1.216 -0.231,-0.623 -0.333,-1.448 -0.333,-2.476 0,-0.969 0.072,-1.723 0.203,-2.258 0.26,-1.129 0.781,-1.607 1.39,-1.607 0.607,0 1.1,0.521 1.36,1.361 0.189,0.622 0.275,1.447 0.275,2.417 0,0.942 -0.072,1.592 -0.217,2.216 C 1.129,-0.435 0.637,0 0,0"
             style="fill:#04327c;fill-opacity:1;fill-rule:nonzero;stroke:none"
             id="path6541"
             inkscape:connector-curvature="0" />
        </g>
      </g>
    </g>
    <path
       d="m 471.63376,-217.37173 h -40.33557 v -2.89836 h 40.33557 z"
       style="fill:#04327c;fill-opacity:1;fill-rule:nonzero;stroke:none;stroke-width:1.31983817"
       id="path6543"
       inkscape:connector-curvature="0" />
    <path
       d="m 466.65267,-201.6023 h -30.37473 v -11.66869 h 30.37473 z m -27.47637,-2.89836 h 24.578 v -5.87197 h -24.578 z"
       style="fill:#04327c;fill-opacity:1;fill-rule:nonzero;stroke:none;stroke-width:1.31983817"
       id="path6545"
       inkscape:connector-curvature="0" />
    <path
       d="m 454.59862,-248.77992 h -6.2666 v -9.72986 h 6.2666 z"
       style="fill:#04327c;fill-opacity:1;fill-rule:nonzero;stroke:none;stroke-width:1.31983817"
       id="path6547"
       inkscape:connector-curvature="0" />
    <path
       d="m 444.95717,-248.78389 h -1.93222 v -9.71006 h 1.93222 z"
       style="fill:#04327c;fill-opacity:1;fill-rule:nonzero;stroke:none;stroke-width:1.31983817"
       id="path6549"
       inkscape:connector-curvature="0" />
    <path
       d="m 459.90434,-248.78389 h -1.93221 v -9.71006 h 1.93221 z"
       style="fill:#04327c;fill-opacity:1;fill-rule:nonzero;stroke:none;stroke-width:1.31983817"
       id="path6551"
       inkscape:connector-curvature="0" />
    <g
       transform="matrix(1.3198382,0,0,-1.3198382,-71.190647,257.08898)"
       id="g6553"
       style="fill:#04327c;fill-opacity:1">
      <g
         id="g6555"
         clip-path="url(#clipPath6559)"
         style="fill:#04327c;fill-opacity:1">
        <g
           id="g6561"
           transform="translate(397.3947,414.0191)"
           style="fill:#04327c;fill-opacity:1">
          <path
             d="m 0,0 c 0,-0.728 -0.624,-1.318 -1.394,-1.318 -0.77,0 -1.395,0.59 -1.395,1.318 0,0.732 0.625,1.324 1.395,1.324 C -0.624,1.324 0,0.732 0,0"
             style="fill:#04327c;fill-opacity:1;fill-rule:nonzero;stroke:none"
             id="path6563"
             inkscape:connector-curvature="0" />
        </g>
        <g
           id="g6565"
           transform="translate(381.1756,352.5588)"
           style="fill:#04327c;fill-opacity:1">
          <path
             d="m 0,0 -25.407,-16.021 c 0.541,-0.791 1.108,-1.587 1.702,-2.388 L 0,-3.462 Z"
             style="fill:#04327c;fill-opacity:1;fill-rule:nonzero;stroke:none"
             id="path6567"
             inkscape:connector-curvature="0" />
        </g>
        <g
           id="g6569"
           transform="translate(410.8227,348.9732)"
           style="fill:#04327c;fill-opacity:1">
          <path
             d="m 0,0 23.663,-14.955 c 0.595,0.8 1.164,1.596 1.706,2.386 L 0,3.463 Z"
             style="fill:#04327c;fill-opacity:1;fill-rule:nonzero;stroke:none"
             id="path6571"
             inkscape:connector-curvature="0" />
        </g>
      </g>
    </g>
  </g>
</svg>
